<?xml version="1.0" standalone="no"?>
<!DOCTYPE svg PUBLIC "-//W3C//DTD SVG 20010904//EN"
 "http://www.w3.org/TR/2001/REC-SVG-20010904/DTD/svg10.dtd">
<svg version="1.0" xmlns="http://www.w3.org/2000/svg"
 width="1280.000000pt" height="992.000000pt" viewBox="0 0 1280.000000 992.000000"
 preserveAspectRatio="xMidYMid meet">
<metadata>
Created by potrace 1.15, written by Peter Selinger 2001-2017
</metadata>
<g transform="translate(0.000000,992.000000) scale(0.100000,-0.100000)"
fill="#ffffff" stroke="none">
<path d="M8075 9914 c-11 -2 -45 -9 -75 -15 -74 -15 -126 -47 -192 -118 -95
-102 -188 -272 -188 -341 0 -12 -12 -32 -27 -46 -25 -23 -25 -25 -8 -38 16
-11 11 -12 -36 -9 -48 4 -58 1 -89 -25 l-34 -29 14 -43 c8 -24 22 -45 32 -48
9 -2 24 -14 32 -27 19 -29 81 -58 106 -50 14 4 20 2 20 -8 0 -27 101 -107 184
-146 45 -22 119 -49 166 -61 47 -12 96 -30 110 -40 14 -10 72 -43 130 -75 154
-85 372 -215 398 -238 12 -11 22 -28 22 -36 0 -13 -2 -13 -9 -2 -5 7 -29 16
-55 18 -25 3 -51 12 -57 19 -17 21 -39 17 -39 -6 0 -15 7 -20 25 -20 18 0 31
-10 45 -32 11 -18 20 -36 20 -40 0 -18 -16 -6 -34 25 l-20 32 -5 -34 c-7 -41
-28 -56 -65 -47 -33 8 -43 31 -23 54 8 9 17 33 19 52 3 34 2 35 -42 47 -95 25
-105 30 -109 49 -4 25 -26 49 -67 73 l-34 20 -15 -22 c-17 -25 -19 -50 -5 -75
5 -9 16 -36 24 -59 11 -36 11 -44 -2 -57 -13 -13 -10 -14 27 -9 22 3 41 2 41
-3 0 -10 -180 -54 -218 -54 -37 0 -65 -19 -52 -34 8 -11 -2 -20 -46 -42 -57
-29 -76 -49 -112 -120 -21 -42 -23 -42 -161 -88 -77 -25 -146 -46 -154 -46 -8
0 -22 10 -33 21 -25 28 -314 172 -533 266 -471 201 -776 288 -1141 326 l-115
12 -10 85 -10 85 -48 9 c-58 11 -150 -5 -179 -31 -20 -18 -21 -60 0 -55 6 1
12 -7 12 -19 0 -11 -4 -17 -10 -14 -6 3 -10 -5 -10 -18 0 -25 0 -25 -82 -20
l-83 5 25 -21 25 -21 -31 0 c-17 0 -40 9 -52 20 -12 11 -34 20 -49 20 -42 0
-106 -20 -128 -40 -24 -21 -63 -32 -67 -19 -8 24 -207 -67 -345 -156 -108 -71
-155 -114 -201 -188 -35 -58 -146 -290 -241 -507 -23 -52 -50 -111 -59 -130
l-17 -35 -105 1 c-90 0 -119 5 -203 33 -162 53 -608 294 -646 349 -9 13 -51
66 -93 120 -43 53 -94 127 -113 164 -20 37 -45 74 -56 81 -20 14 -20 15 4 21
14 3 27 16 31 28 11 42 6 168 -8 202 -52 124 -418 233 -899 266 -191 13 -457
56 -747 120 -145 32 -394 42 -610 23 -96 -9 -179 -19 -183 -23 -5 -4 -1 -22 7
-39 13 -25 21 -30 39 -26 13 4 36 1 52 -5 27 -10 28 -12 11 -22 -24 -13 -96
-2 -111 18 -10 14 -15 11 -43 -20 -39 -44 -42 -86 -9 -116 12 -12 54 -37 94
-56 65 -32 113 -75 113 -102 0 -5 -37 -13 -83 -17 -91 -8 -206 -42 -273 -81
-67 -40 -115 -105 -84 -116 5 -1 11 -15 12 -30 1 -16 5 -28 9 -28 6 0 21 -41
23 -65 2 -23 50 -87 76 -100 32 -17 313 -249 350 -290 14 -15 45 -41 68 -57
24 -17 50 -45 58 -63 9 -23 29 -42 64 -61 27 -15 50 -33 50 -39 0 -8 -30 -14
-88 -18 -54 -4 -114 -15 -159 -31 -60 -22 -91 -26 -177 -26 -95 0 -107 2 -133
24 -48 40 -73 48 -157 53 -96 5 -161 -11 -188 -47 -11 -16 -21 -51 -25 -93 -7
-76 3 -94 69 -128 54 -27 215 -27 276 1 41 19 141 40 188 40 22 0 94 -60 94
-79 0 -6 -16 -11 -35 -11 l-35 0 0 -59 c0 -32 3 -73 7 -91 l6 -33 58 6 c33 3
61 1 64 -4 3 -4 -1 -23 -8 -42 l-15 -34 -173 -12 c-223 -15 -226 -16 -238 -55
-25 -75 -111 -433 -111 -459 l0 -30 123 8 c194 12 180 13 187 -15 6 -24 8 -25
109 -28 l104 -3 43 46 c42 46 42 46 136 56 51 6 102 16 113 23 20 14 42 74 85
238 11 43 20 92 20 109 0 40 30 81 83 112 23 14 97 81 163 149 l122 123 37
-26 c21 -15 60 -34 87 -44 35 -12 70 -38 116 -84 82 -82 183 -144 436 -265
117 -57 199 -102 205 -114 6 -12 11 -33 11 -49 0 -15 7 -37 15 -47 8 -11 15
-29 15 -40 0 -16 -5 -12 -18 14 -23 47 -70 54 -101 14 -40 -51 -19 -100 39
-92 16 3 30 1 30 -3 0 -3 -26 -9 -58 -11 -66 -5 -73 -9 -367 -213 -217 -151
-233 -161 -247 -147 -6 6 1 13 20 20 17 6 42 29 59 54 17 26 41 47 59 53 17 6
41 18 55 28 l24 18 -24 -7 c-19 -5 -34 5 -85 53 -114 111 -251 221 -261 211
-3 -2 34 -36 81 -74 104 -83 132 -119 116 -145 -7 -10 -12 -39 -12 -63 0 -48
-10 -56 -81 -56 -41 0 -55 20 -65 93 l-5 42 23 -26 c13 -15 31 -40 40 -58 17
-31 43 -49 55 -37 4 3 0 12 -9 19 -9 6 -30 32 -47 56 -25 36 -31 54 -31 96 0
54 -27 105 -55 105 -50 0 -24 -135 63 -332 6 -13 -35 -9 -46 5 -17 20 -81 173
-117 282 -19 55 -39 101 -44 103 -14 5 -33 -36 -33 -73 0 -18 7 -48 16 -66 8
-19 26 -68 40 -109 13 -41 31 -93 40 -115 8 -22 15 -60 16 -84 0 -33 3 -42 14
-38 17 7 26 -13 26 -59 0 -20 4 -44 10 -54 7 -13 4 -24 -12 -45 -26 -33 -37
-24 -67 53 -26 66 -26 84 -1 107 25 23 26 42 2 49 -49 16 -285 -95 -424 -199
-301 -226 -491 -564 -588 -1045 -70 -348 -10 -914 136 -1284 44 -112 165 -348
225 -441 183 -281 506 -558 787 -676 194 -80 436 -109 632 -75 276 48 559 194
777 399 l72 68 118 -31 c298 -79 922 -263 987 -291 84 -35 644 -237 783 -283
435 -141 1098 -294 1718 -396 494 -81 531 -87 701 -111 l161 -23 53 27 c29 15
54 26 56 24 2 -1 19 -57 39 -122 97 -324 201 -537 387 -799 144 -202 288 -352
488 -510 361 -286 722 -457 1140 -540 185 -37 237 -41 540 -40 341 1 434 11
698 80 293 76 484 153 692 279 389 236 582 418 815 770 203 305 301 565 376
990 20 110 23 165 23 360 1 239 -7 323 -49 520 -133 623 -492 1168 -1042 1584
-46 34 -83 64 -83 67 0 3 41 2 90 -2 65 -5 90 -3 90 5 0 19 -127 95 -316 190
-382 190 -664 277 -1094 337 -95 13 -198 18 -430 18 -168 1 -329 -3 -357 -7
-34 -5 -53 -4 -53 2 0 28 338 257 773 524 l268 164 392 8 c435 8 473 13 611
79 128 62 141 93 126 306 -12 166 -24 248 -55 365 -13 50 -31 126 -40 170 -25
118 -61 180 -219 375 -64 78 -90 119 -102 160 -19 65 -75 154 -183 289 -44 56
-100 130 -123 164 -121 180 -304 405 -339 419 -10 4 -53 43 -96 87 -56 57 -91
84 -123 96 -64 22 -65 22 -63 -3 2 -14 -12 -42 -38 -74 -22 -28 -36 -54 -31
-57 14 -9 10 -41 -4 -41 -7 0 -116 69 -243 154 -232 156 -441 281 -528 315
-85 34 -226 128 -259 173 -17 23 -55 57 -85 74 -66 39 -220 198 -253 261 -8
16 -71 84 -141 151 -100 96 -125 126 -120 141 3 11 2 28 -4 38 -5 10 -22 44
-37 76 -15 31 -46 78 -68 103 -176 198 -174 196 -346 200 -69 2 -134 1 -145
-2z m545 -878 c19 -18 48 -38 64 -46 25 -13 29 -13 42 4 11 16 16 17 29 6 19
-16 19 -44 0 -60 -8 -7 -15 -23 -15 -36 0 -12 -4 -25 -8 -28 -10 -6 -77 24
-126 57 -21 15 -42 24 -47 21 -5 -3 -9 2 -9 10 0 9 -9 25 -19 35 -16 16 -28
19 -58 14 -38 -6 -38 -6 -20 15 27 30 78 52 107 45 14 -3 41 -20 60 -37z
m-3140 -166 c0 -5 -4 -10 -9 -10 -6 0 -13 5 -16 10 -3 6 1 10 9 10 9 0 16 -4
16 -10z m-4822 -100 c12 -21 22 -42 22 -46 0 -9 -34 35 -49 64 -21 39 3 24 27
-18z m427 9 c15 -15 -18 -10 -45 6 l-25 15 30 -6 c17 -4 34 -11 40 -15z m4145
-43 c0 -3 -4 -8 -10 -11 -5 -3 -10 -1 -10 4 0 6 5 11 10 11 6 0 10 -2 10 -4z
m589 -92 c48 -15 81 -28 76 -30 -6 -2 -49 9 -95 25 -107 37 -94 40 19 5z m292
0 c17 -8 29 -18 26 -20 -6 -6 -67 23 -67 31 0 8 10 6 41 -11z m3297 -25 c23
-16 53 -31 67 -35 14 -3 29 -12 33 -19 12 -22 124 -105 141 -105 9 0 21 -8 28
-19 10 -16 8 -18 -17 -19 -16 0 -34 6 -41 14 -6 8 -22 14 -36 14 -32 0 -59 15
-109 59 -22 20 -55 47 -73 61 -18 14 -44 40 -58 59 l-26 33 24 -7 c13 -3 43
-20 67 -36z m-8908 -59 c0 -5 -7 -10 -15 -10 -8 0 -15 5 -15 10 0 6 7 10 15
10 8 0 15 -4 15 -10z m85 -30 c3 -5 1 -10 -4 -10 -6 0 -11 5 -11 10 0 6 2 10
4 10 3 0 8 -4 11 -10z m5653 -7 c-10 -2 -26 -2 -35 0 -10 3 -2 5 17 5 19 0 27
-2 18 -5z m-5860 -53 c122 -22 120 -21 252 -116 67 -49 235 -144 254 -144 12
-1 66 -45 66 -55 0 -3 39 -53 87 -113 118 -145 120 -149 30 -55 -135 142 -292
241 -480 303 -53 18 -97 37 -97 42 0 6 -9 8 -20 5 -13 -3 -20 0 -20 9 0 8 -7
14 -16 14 -8 0 -12 -4 -9 -10 11 -17 -139 86 -164 114 -29 31 -30 31 117 6z
m4177 -30 c3 -5 1 -10 -5 -10 -6 0 -8 -4 -5 -10 3 -5 2 -10 -4 -10 -5 0 -13 5
-16 10 -7 12 2 30 15 30 5 0 12 -4 15 -10z m4491 -179 c31 -19 45 -48 58 -116
3 -16 3 -24 -1 -17 -5 14 -177 102 -198 102 -6 0 -22 8 -35 17 l-24 17 24 7
c53 15 144 9 176 -10z m-1756 -216 c0 -3 -14 -18 -32 -34 l-32 -28 37 -37 c37
-37 53 -74 19 -43 -28 25 -35 20 -15 -10 l17 -28 -25 22 c-25 22 -85 33 -108
19 -28 -18 8 31 66 87 53 52 73 66 73 52z m1680 -126 c0 -6 -4 -7 -10 -4 -5 3
-10 11 -10 16 0 6 5 7 10 4 6 -3 10 -11 10 -16z m-1040 -50 c0 -75 -33 -102
-64 -53 -23 33 -17 66 14 81 42 21 50 16 50 -28z m-2564 -17 c57 -29 71 -48
46 -61 -16 -9 -29 -5 -68 22 -26 17 -54 42 -62 54 -13 21 -13 22 15 14 16 -5
47 -18 69 -29z m1894 4 c0 -8 -4 -18 -10 -21 -5 -3 -10 3 -10 14 0 12 5 21 10
21 6 0 10 -6 10 -14z m-50 -17 c0 -5 -4 -9 -10 -9 -5 0 -10 7 -10 16 0 8 5 12
10 9 6 -3 10 -10 10 -16z m233 -6 c-7 -2 -19 -2 -25 0 -7 3 -2 5 12 5 14 0 19
-2 13 -5z m-207 -28 c38 7 47 -11 18 -39 -21 -21 -27 -20 -63 10 -35 30 -41
50 -10 33 12 -6 36 -8 55 -4z m412 -70 c-3 -14 -1 -25 6 -25 14 0 -15 -20 -30
-20 -8 0 -8 10 0 35 12 40 31 48 24 10z m486 -129 c19 -50 33 -125 21 -114
-10 9 -45 -35 -45 -55 0 -28 -17 -27 -24 1 -3 15 -17 62 -30 105 l-25 78 32
14 c48 21 53 19 71 -29z m-7547 -42 c-3 -3 -12 -4 -19 -1 -8 3 -5 6 6 6 11 1
17 -2 13 -5z m6808 -48 c12 -12 12 -16 0 -26 -8 -7 -15 -17 -15 -22 0 -6 7 -5
15 2 13 10 15 9 15 -8 0 -33 -19 -36 -31 -5 -6 15 -15 35 -19 44 -15 29 11 40
35 15z m-6545 -42 c0 -2 -12 -4 -26 -4 -14 0 -23 4 -20 9 6 8 46 4 46 -5z
m266 -11 c-11 -29 -70 -101 -78 -96 -16 9 -8 70 12 91 26 27 76 31 66 5z
m6854 -32 c-19 -10 -39 -15 -44 -13 -15 8 26 32 53 32 25 -1 24 -2 -9 -19z
m-6651 0 c12 -8 3 -23 -43 -75 -32 -36 -62 -66 -67 -66 -9 0 -4 104 6 138 5
14 83 16 104 3z m6901 -41 c0 -27 -38 -70 -63 -70 -13 0 -3 86 13 105 19 23
50 1 50 -35z m-170 1 c15 -29 12 -50 -12 -84 l-22 -30 -18 53 c-10 29 -17 54
-15 55 10 8 43 24 49 25 4 0 12 -9 18 -19z m329 -39 c1 -7 -3 -10 -9 -7 -5 3
-10 18 -9 33 0 24 1 25 9 7 5 -11 9 -26 9 -33z m-7224 -41 l-7 -61 -39 0 c-21
0 -39 5 -39 10 0 14 81 122 87 116 3 -3 2 -32 -2 -65z m7371 -6 c20 -48 30
-125 16 -125 -13 0 -52 101 -52 135 0 36 19 31 36 -10z m-5698 -542 c497 -249
910 -453 918 -453 16 0 19 -26 4 -35 -6 -4 -18 -1 -27 7 -9 7 -449 231 -978
498 -529 267 -973 493 -986 502 -55 39 214 -91 1069 -519z m1152 526 c-56 -24
-176 -40 -250 -34 -85 8 -153 23 -146 33 2 4 98 8 213 9 154 2 201 0 183 -8z
m4204 -44 c6 16 9 17 16 5 12 -19 13 -33 1 -26 -22 14 -21 -52 2 -104 13 -30
30 -80 37 -110 7 -30 21 -76 32 -101 11 -25 18 -56 16 -70 -3 -24 -133 363
-144 431 l-5 35 18 -40 c17 -34 20 -37 27 -20z m-7243 -8 c-22 -23 -31 -27
-31 -16 0 22 53 75 58 59 3 -7 -10 -26 -27 -43z m-111 17 c16 -41 13 -44 -38
-44 -57 0 -65 5 -50 34 23 45 73 51 88 10z m218 -22 c9 -6 6 -12 -13 -20 -17
-8 -25 -20 -25 -37 0 -14 -4 -25 -10 -25 -5 0 -10 6 -10 14 0 8 -6 16 -12 19
-9 3 -5 13 11 31 26 27 38 31 59 18z m7062 -31 c0 -10 -11 -23 -25 -29 -29
-14 -31 -10 -8 28 18 31 33 31 33 1z m-280 -8 c8 -13 13 -14 16 -5 7 14 34 16
34 2 0 -5 -7 -10 -15 -10 -17 0 -20 -25 -5 -35 16 -10 11 -25 -9 -25 -23 0
-47 25 -32 35 7 4 5 15 -5 31 -9 13 -12 24 -6 24 6 0 16 -8 22 -17z m-5401 -4
c34 -12 41 -38 16 -59 -18 -15 -43 -7 -81 28 -17 15 -37 26 -44 24 -7 -3 -10
0 -6 7 9 14 74 14 115 0z m3007 -34 c-11 -8 -25 -15 -30 -15 -6 0 -2 7 8 15
11 8 25 15 30 15 6 0 2 -7 -8 -15z m-2580 -252 c-3 -4 -14 1 -24 10 -10 10
-27 17 -38 17 -15 0 -16 2 -5 9 12 8 -6 33 -83 118 l-99 108 128 -128 c70 -71
124 -131 121 -134z m5054 247 c0 -5 -2 -10 -4 -10 -3 0 -8 5 -11 10 -3 6 -1
10 4 10 6 0 11 -4 11 -10z m-2374 -15 c-22 -16 -57 -21 -40 -6 7 8 29 15 54
20 3 0 -4 -6 -14 -14z m-1877 -9 c10 -12 9 -13 -7 -9 -24 6 -36 -10 -27 -37 8
-26 24 -25 35 3 l9 22 0 -22 c1 -27 -13 -36 -39 -28 -13 4 -20 15 -20 30 0 51
24 71 49 41z m1801 -24 c0 -4 -25 -20 -55 -35 -30 -15 -55 -22 -55 -16 0 5 24
21 53 34 62 28 57 27 57 17z m2415 -2 c-3 -5 -14 -10 -23 -9 -14 0 -13 2 3 9
27 11 27 11 20 0z m1890 -10 c3 -5 1 -10 -4 -10 -6 0 -11 5 -11 10 0 6 2 10 4
10 3 0 8 -4 11 -10z m-4024 -42 c40 -32 49 -61 30 -96 -12 -23 -108 -28 -156
-8 -27 11 -35 21 -35 40 0 41 11 58 54 77 55 25 61 24 107 -13z m-2198 15 c-7
-2 -21 -2 -30 0 -10 3 -4 5 12 5 17 0 24 -2 18 -5z m4733 -46 c16 6 19 -13 3
-23 -16 -9 -29 15 -27 51 l1 30 4 -32 c3 -23 8 -30 19 -26z m1539 33 c3 -5 3
-15 -1 -21 -6 -11 -23 6 -24 24 0 10 18 9 25 -3z m57 -50 c-5 -36 -8 -37 -22
-9 -9 15 -8 24 0 35 18 20 27 9 22 -26z m-1812 9 c9 -5 2 -6 -20 -2 -19 3 -42
10 -50 15 -20 12 49 -1 70 -13z m1865 -50 c6 -8 27 -28 48 -44 29 -21 37 -34
35 -53 -6 -52 -24 -38 -115 87 -8 11 -8 23 -1 41 10 23 11 24 17 5 3 -11 11
-27 16 -36z m-6017 -26 c10 -21 38 -99 63 -173 24 -74 48 -138 52 -141 5 -3
10 -37 11 -74 3 -60 6 -71 29 -89 14 -12 33 -40 41 -62 8 -23 26 -67 40 -99
15 -32 25 -59 23 -61 -2 -2 -29 18 -61 45 -31 27 -75 56 -97 66 -31 14 -41 26
-49 54 -27 101 -120 535 -120 561 0 5 11 10 25 10 19 0 29 -9 43 -37z m4440
-18 c-3 -3 -9 2 -12 12 -6 14 -5 15 5 6 7 -7 10 -15 7 -18z m-26 -20 c11 -14
25 -25 33 -25 7 0 18 -13 23 -30 11 -29 10 -30 -30 -41 -31 -8 -43 -8 -52 2
-8 9 -8 10 1 5 17 -9 43 4 43 23 0 14 2 14 10 1 8 -13 10 -13 10 1 0 25 -12
30 -31 13 -12 -11 -19 -12 -24 -4 -4 7 -1 16 6 21 10 6 11 11 3 17 -12 8 -26
42 -18 42 4 0 15 -11 26 -25z m-422 -85 c0 -13 -37 -13 -45 0 -3 6 -3 15 0 20
7 12 45 -5 45 -20z m2376 -28 c-11 -10 -14 3 -8 33 l7 30 3 -28 c2 -16 1 -31
-2 -35z m-7971 3 c0 -19 -5 -30 -15 -31 -9 0 -10 1 -2 3 17 6 15 43 -3 43 -8
0 -15 -8 -16 -17 0 -11 -2 -13 -6 -5 -8 21 6 44 24 40 12 -2 18 -13 18 -33z
m3430 0 c-16 -8 -36 -14 -42 -15 -7 0 -13 -4 -13 -9 0 -4 12 -6 28 -4 17 3 3
-8 -38 -28 -61 -30 -163 -120 -204 -179 -9 -14 -7 -5 6 19 23 45 113 128 171
158 18 9 27 18 19 21 -7 2 -19 -2 -28 -8 -8 -7 -17 -10 -21 -7 -7 8 116 67
137 66 8 0 2 -7 -15 -14z m4601 -15 c3 0 13 8 22 17 16 16 17 15 20 -11 l4
-28 24 23 24 22 0 -40 c0 -23 -3 -48 -6 -57 -9 -24 -32 -19 -36 7 -2 15 -14
25 -38 33 -37 12 -46 25 -34 52 7 16 7 16 11 0 3 -10 7 -18 9 -18z m-7773 -6
c34 -18 120 -102 138 -135 13 -25 -4 -75 -32 -89 -23 -13 -66 -13 -74 0 -13
21 -80 8 -247 -51 -357 -125 -661 -229 -671 -229 -7 0 -7 3 -2 9 11 10 445
183 695 277 146 54 210 84 182 84 -6 0 -58 -18 -114 -41 -152 -61 -427 -159
-444 -159 -34 0 -1 29 137 123 144 98 261 162 311 172 15 3 40 16 55 30 34 29
27 28 66 9z m7914 -25 c-7 -56 -27 -75 -27 -27 0 43 8 68 22 68 7 0 8 -16 5
-41z m53 10 c0 -10 -4 -19 -10 -19 -5 0 -10 12 -10 26 0 14 4 23 10 19 6 -3
10 -15 10 -26z m-1527 -34 c-3 -9 -8 -14 -10 -11 -3 3 -2 9 2 15 9 16 15 13 8
-4z m-1036 -1 c-3 -3 -12 -4 -19 -1 -8 3 -5 6 6 6 11 1 17 -2 13 -5z m-5037
-99 c39 -20 53 -40 240 -340 89 -143 170 -269 179 -280 21 -25 44 -76 37 -83
-3 -3 -95 32 -203 78 -109 46 -272 115 -363 153 -172 73 -264 107 -286 107 -7
0 -26 -11 -42 -25 l-29 -24 -139 64 c-76 35 -139 67 -138 72 2 15 543 203 586
203 41 0 78 36 78 75 0 33 1 34 25 25 14 -5 38 -16 55 -25z m3020 -36 c0 -6
-4 -7 -10 -4 -5 3 -10 11 -10 16 0 6 5 7 10 4 6 -3 10 -11 10 -16z m5300 -41
c0 -5 -5 -8 -11 -8 -5 0 -8 4 -5 9 4 5 2 11 -3 13 -4 1 -12 14 -15 28 -7 23
-6 23 13 -5 12 -16 21 -33 21 -37z m-675 10 c-17 -112 -21 -119 -48 -63 -30
63 -18 105 31 105 22 0 23 -3 17 -42z m-4430 16 c22 -9 66 -24 98 -35 85 -28
100 -38 57 -39 -64 0 -275 64 -264 81 8 14 64 10 109 -7z m-2555 -29 c0 -11
-40 -24 -57 -18 -15 6 -13 9 12 14 42 9 45 10 45 4z m84 -34 c7 -10 -17 -21
-46 -21 -17 0 -18 3 -8 15 14 17 46 20 54 6z m2716 -21 c0 -5 -7 -10 -16 -10
-8 0 -12 5 -9 10 3 6 10 10 16 10 5 0 9 -4 9 -10z m-4465 -71 c0 -13 -142 -75
-151 -66 -7 6 130 87 141 83 6 -1 10 -9 10 -17z m3451 -41 c-34 -78 -85 -175
-85 -163 -1 13 96 215 103 215 3 0 -5 -24 -18 -52z m-3696 38 c0 -2 -7 -7 -16
-10 -8 -3 -12 -2 -9 4 6 10 25 14 25 6z m6920 -16 c0 -5 -12 -10 -26 -10 -14
0 -23 4 -19 10 3 6 15 10 26 10 10 0 19 -4 19 -10z m-4864 -190 c22 -16 58
-32 80 -36 65 -11 74 -20 74 -68 0 -24 5 -67 10 -97 12 -60 0 -82 -37 -73 -21
6 -21 8 -7 46 16 45 18 106 5 126 -7 12 -43 20 -195 39 l-60 8 -47 80 c-27 44
-48 83 -49 88 0 10 173 -78 226 -113z m2074 90 c-26 -24 -31 -35 -25 -58 6
-27 3 -31 -44 -51 -64 -27 -99 -27 -135 3 l-30 23 41 27 c52 34 170 84 202 85
22 1 22 0 -9 -29z m-4440 -111 c0 -6 -4 -7 -10 -4 -5 3 -10 11 -10 16 0 6 5 7
10 4 6 -3 10 -11 10 -16z m2656 -3 c10 -42 1 -81 -21 -84 -18 -2 -18 -2 -2 8
20 13 22 31 5 48 -8 8 -15 9 -25 1 -18 -15 -16 2 3 29 20 28 32 28 40 -2z
m2422 12 c18 -18 14 -42 -11 -67 -22 -19 -25 -20 -37 -6 -7 8 -10 18 -6 22 3
3 6 1 6 -5 0 -7 7 -12 15 -12 17 0 20 35 4 46 -6 3 -15 0 -20 -7 -5 -8 -9 -10
-9 -5 0 11 30 46 40 46 3 0 11 -5 18 -12z m-868 -23 c20 -24 6 -28 -15 -5 -10
11 -13 20 -8 20 6 0 16 -7 23 -15z m-604 -14 c-6 -10 -66 -33 -66 -26 0 3 15
11 33 19 40 18 39 18 33 7z m198 -112 c4 -29 3 -35 -2 -19 -5 15 -15 25 -27
25 -12 0 -22 -9 -26 -25 -6 -23 -7 -23 -8 -3 -1 12 9 38 21 58 25 43 34 35 42
-36z m-864 4 c0 -17 -4 -35 -10 -38 -6 -4 -10 14 -10 47 0 38 3 49 10 38 5 -8
10 -29 10 -47z m460 27 c-8 -5 -19 -10 -25 -10 -5 0 -3 5 5 10 8 5 20 10 25
10 6 0 3 -5 -5 -10z m-719 -42 c10 -18 8 -24 -7 -35 -33 -24 -41 -14 -28 35 8
28 20 28 35 0z m194 -45 c-4 -10 -10 -26 -12 -35 -3 -10 -9 -18 -14 -18 -5 0
-9 -7 -9 -15 0 -8 -4 -15 -10 -15 -5 0 -24 -13 -42 -28 -18 -16 -60 -44 -93
-64 -68 -40 -294 -157 -340 -175 -34 -14 -34 -14 92 65 51 31 136 95 190 141
86 75 212 161 236 161 5 0 6 -8 2 -17z m-612 -25 c39 -28 34 -95 -9 -112 -31
-12 -44 13 -44 81 0 69 -1 68 53 31z m222 -48 c3 -5 -1 -10 -9 -10 -9 0 -16
-4 -16 -9 0 -5 -9 -11 -20 -14 -27 -7 -25 8 2 27 26 19 35 20 43 6z m-11 -82
c14 -10 -5 -11 -28 -2 -13 5 -14 9 -4 21 10 12 13 13 17 2 2 -8 9 -17 15 -21z
m-2359 7 c63 -16 206 -81 240 -109 11 -9 -14 1 -55 23 -125 66 -190 84 -330
91 l-125 7 105 1 c68 1 127 -4 165 -13z m-415 -45 c-8 -5 -19 -10 -25 -10 -5
0 -3 5 5 10 8 5 20 10 25 10 6 0 3 -5 -5 -10z m2540 -10 c0 -13 -5 -18 -15
-14 -8 4 -15 12 -15 20 0 8 7 14 15 14 8 0 15 -9 15 -20z m-580 -83 c60 -28
193 -135 211 -168 6 -12 -24 9 -67 45 -42 36 -104 79 -137 96 -54 27 -70 30
-154 30 -124 0 -168 -21 -310 -147 -150 -133 -165 -142 -48 -29 170 163 256
209 380 203 49 -3 87 -12 125 -30z m1181 -10 c-8 -8 -11 -7 -11 4 0 20 13 34
18 19 3 -7 -1 -17 -7 -23z m87 -24 c-4 -22 -22 -20 -26 1 -2 10 3 16 13 16 10
0 15 -7 13 -17z m-48 -43 c0 -10 4 -22 10 -25 14 -9 32 -45 22 -45 -10 0 -52
72 -52 89 0 7 5 9 10 6 6 -3 10 -15 10 -25z m4592 3 c20 -18 24 -48 7 -58 -17
-11 -23 3 -9 21 12 13 11 17 0 24 -17 11 -40 -6 -40 -28 0 -13 -3 -12 -20 3
-19 17 -19 19 -4 37 21 22 42 23 66 1z m-2780 -10 c11 -9 18 -30 18 -50 l0
-33 -25 16 c-28 18 -41 14 -32 -11 4 -8 18 -15 32 -15 23 0 24 -2 15 -20 -7
-14 -7 -20 0 -20 5 0 10 -6 10 -14 0 -8 6 -17 13 -19 6 -3 2 -6 -10 -6 -15 -1
-23 6 -25 22 -2 15 -11 23 -29 25 -15 2 -35 12 -45 24 -19 20 -18 20 9 42 31
25 26 42 -7 24 -19 -10 -20 -10 -8 5 8 9 11 20 8 26 -15 23 51 27 76 4z
m-4228 -42 c108 -86 279 -281 247 -281 -15 0 -129 -97 -142 -121 -17 -33 -2
-35 59 -6 43 21 51 23 32 8 -41 -33 -169 -82 -250 -97 -90 -16 -184 -18 -175
-4 3 6 34 10 68 10 67 0 195 24 210 39 6 6 3 32 -6 68 -14 56 -103 380 -113
416 -8 26 3 21 70 -32z m96 -6 c13 -14 21 -25 18 -25 -2 0 -15 11 -28 25 -13
14 -21 25 -18 25 2 0 15 -11 28 -25z m3990 16 c0 -5 -6 -11 -12 -14 -9 -3 -8
-10 6 -26 21 -23 16 -27 -17 -9 -20 10 -21 10 -8 -6 24 -29 6 -27 -30 3 l-34
29 35 15 c41 18 60 20 60 8z m-4330 -72 c5 -30 16 -92 24 -139 22 -122 21
-140 -8 -140 -13 0 -30 7 -37 17 -19 22 -72 43 -109 43 -21 0 -30 5 -30 16 0
37 133 274 146 261 3 -2 9 -29 14 -58z m2720 -7 c0 -15 -2 -15 -10 -2 -13 20
-13 33 0 25 6 -3 10 -14 10 -23z m1542 1 c19 -17 25 -39 8 -28 -6 4 -10 -7
-10 -25 0 -22 -4 -29 -12 -24 -29 18 -69 14 -94 -11 -22 -22 -24 -32 -22 -90
2 -60 -4 -86 -18 -72 -3 3 -2 11 2 19 10 16 5 90 -6 102 -6 6 1 19 15 32 27
25 36 56 11 35 -12 -10 -17 -8 -26 9 -10 18 -7 22 24 35 20 8 42 15 51 15 8 0
15 5 15 10 0 16 42 12 62 -7z m1008 -1 c0 -16 -116 -94 -200 -135 -46 -22
-113 -58 -149 -79 -36 -21 -94 -47 -128 -59 -35 -11 -65 -25 -68 -30 -4 -5
-21 -9 -39 -9 -18 0 -57 -14 -88 -30 -30 -17 -77 -33 -104 -36 -69 -9 -50 6
71 56 101 42 566 265 640 307 42 24 65 29 65 15z m-890 -27 c0 -8 -4 -16 -9
-19 -5 -3 -8 5 -7 18 1 25 16 26 16 1z m-3197 -73 c146 -76 312 -174 341 -202
18 -18 17 -20 -48 -95 -37 -42 -85 -104 -107 -138 -35 -54 -44 -62 -67 -59
-15 2 -38 14 -51 25 -41 38 -173 220 -198 275 -26 55 -57 215 -47 244 9 30 39
21 177 -50z m813 7 c22 -17 86 -63 144 -102 168 -113 180 -123 180 -163 0 -19
-5 -34 -11 -34 -6 0 -9 -7 -6 -15 10 -24 -7 -23 -33 3 -18 18 -20 23 -7 19 18
-7 24 8 7 18 -5 3 -10 11 -10 16 0 6 5 7 10 4 6 -3 10 -1 10 4 0 6 -15 11 -32
11 -26 0 -30 3 -18 11 8 6 11 13 5 15 -11 5 -66 37 -175 102 -40 23 -82 45
-95 48 -18 4 -24 14 -28 42 -7 62 3 66 59 21z m2078 21 c29 -10 35 -30 10 -30
-14 0 -14 -2 0 -22 10 -14 16 -44 16 -76 0 -48 -1 -52 -16 -38 -8 9 -13 20
-10 25 3 5 -7 11 -22 14 -99 19 -154 49 -132 71 10 10 107 62 122 65 4 0 18
-3 32 -9z m-929 -66 c61 -36 177 -98 259 -139 82 -41 159 -83 170 -94 48 -44
234 -121 350 -146 l61 -12 -49 -8 c-65 -10 -126 5 -261 64 -60 27 -129 55
-152 61 -23 7 -63 30 -88 51 -26 22 -54 39 -62 39 -9 0 -48 18 -88 40 -40 22
-79 40 -88 40 -9 0 -18 8 -22 19 -3 10 -34 37 -68 59 -94 62 -107 72 -107 82
0 22 40 6 145 -56z m-2345 43 c0 -8 -9 -22 -20 -32 -16 -14 -23 -16 -32 -7 -9
9 -7 16 7 32 21 23 45 26 45 7z m780 10 c0 -1 -23 -25 -52 -52 -49 -47 -44
-34 11 28 21 23 41 35 41 24z m2655 -17 c10 -11 13 -20 7 -20 -6 0 -10 -14
-10 -31 1 -34 -23 -65 -45 -56 -8 3 -20 22 -27 42 -21 65 33 112 75 65z
m-2324 -100 c-9 -23 -10 -23 -10 11 -1 20 2 52 7 70 7 34 7 34 10 -11 2 -25
-1 -57 -7 -70z m-168 80 c3 -11 1 -20 -4 -20 -5 0 -9 2 -9 4 0 2 -3 11 -6 20
-3 9 -2 16 4 16 5 0 12 -9 15 -20z m-1038 -46 c-34 -27 -106 -67 -110 -62 -3
2 23 21 57 41 65 39 87 47 53 21z m5177 -46 c-7 -7 -12 -8 -12 -2 0 14 12 26
19 19 2 -3 -1 -11 -7 -17z m-4146 -20 c-7 -37 -5 -34 -33 -42 -28 -9 -29 0 -3
42 26 42 45 42 36 0z m1339 22 c3 -5 -1 -10 -10 -10 -9 0 -13 5 -10 10 3 6 8
10 10 10 2 0 7 -4 10 -10z m773 -9 c3 -8 -1 -12 -9 -9 -7 2 -15 10 -17 17 -3
8 1 12 9 9 7 -2 15 -10 17 -17z m-3308 -35 c0 -23 -31 -49 -43 -37 -7 7 -5 17
8 31 21 23 35 26 35 6z m3615 -16 c-3 -5 -11 -10 -16 -10 -6 0 -7 5 -4 10 3 6
11 10 16 10 6 0 7 -4 4 -10z m-4595 -81 c0 -31 -27 -47 -37 -22 -3 9 -1 29 5
45 6 16 9 37 6 46 -2 9 2 4 10 -13 8 -16 15 -42 16 -56z m6317 75 c-3 -3 -12
-4 -19 -1 -8 3 -5 6 6 6 11 1 17 -2 13 -5z m-6131 -62 c-4 -3 -11 -1 -17 5 -8
8 -7 18 3 34 l13 24 3 -28 c2 -16 1 -31 -2 -35z m3484 12 c0 -8 -4 -12 -10 -9
-5 3 -10 10 -10 16 0 5 5 9 10 9 6 0 10 -7 10 -16z m-190 -26 c0 -6 -7 -5 -15
2 -8 7 -15 17 -15 22 0 6 7 5 15 -2 8 -7 15 -17 15 -22z m-3320 -63 c1 -15 3
-17 8 -5 4 8 16 16 27 17 17 1 16 -2 -8 -23 -31 -27 -47 -31 -47 -11 0 8 -4 7
-10 -3 -7 -11 -10 -2 -10 31 0 25 3 49 7 53 9 8 32 -32 33 -59z m1038 35 c-1
-17 -6 -30 -14 -30 -7 0 -33 -18 -59 -40 -57 -49 -120 -86 -162 -95 -18 -4
-33 -11 -33 -16 0 -5 -8 -9 -19 -9 -10 0 -24 -7 -31 -15 -7 -8 -20 -15 -30
-15 -10 0 -23 -7 -31 -16 -8 -10 -21 -13 -36 -9 -16 4 -23 1 -23 -9 0 -7 -8
-13 -17 -12 -13 1 -19 -8 -21 -27 -4 -29 -9 -31 -54 -12 -13 5 -18 3 -18 -8 0
-15 -20 -27 -46 -27 -8 0 -14 5 -14 10 0 6 9 10 20 10 11 0 20 4 20 9 0 12
164 122 210 141 19 7 39 20 43 27 4 7 14 13 21 13 7 0 33 15 57 32 73 54 158
98 189 98 10 0 20 7 24 15 10 26 25 16 24 -15z m1902 8 c0 -4 -5 -8 -11 -8 -6
0 4 -17 22 -37 l33 -38 -50 -5 c-27 -3 -59 -11 -71 -18 -28 -16 -33 -15 -33 4
0 23 32 74 46 74 7 0 10 8 7 20 -5 18 -1 20 26 18 17 -1 31 -6 31 -10z m-1008
-25 c21 -19 24 -34 6 -30 -7 1 -13 -7 -14 -18 -2 -37 -4 -39 -19 -19 -12 16
-14 17 -15 2 0 -29 12 -48 30 -48 18 0 17 -2 -1 -37 -10 -21 -27 -65 -36 -98
-14 -49 -18 -55 -21 -32 -2 15 6 57 18 93 12 36 19 68 16 72 -10 10 -75 -29
-103 -62 -13 -16 -22 -37 -20 -47 3 -11 -2 -19 -14 -22 -11 -3 -19 -12 -19
-20 0 -20 -40 -30 -46 -12 -3 8 7 32 23 53 54 75 186 242 191 242 3 0 14 -7
24 -17z m-1685 -10 c22 -9 15 -33 -10 -33 -34 0 -125 29 -133 42 -5 7 12 9 61
3 38 -4 74 -9 82 -12z m-411 -68 c-9 -13 -16 -33 -16 -44 0 -11 -4 -23 -10
-26 -5 -3 -10 1 -10 9 0 22 32 86 43 86 5 0 2 -11 -7 -25z m2323 -143 c72 -68
131 -129 131 -135 0 -6 -6 -3 -13 7 -9 12 -23 17 -42 14 -28 -3 -35 -11 -65
-78 -4 -8 -49 -32 -101 -53 -146 -59 -436 -167 -449 -167 -6 0 -10 8 -8 17 2
12 35 30 98 55 67 26 90 39 78 43 -22 9 -24 51 -3 71 8 9 15 23 15 33 0 19 36
58 45 49 3 -3 -2 -24 -10 -48 -8 -23 -15 -44 -15 -46 0 -2 30 -2 68 0 68 4
222 51 269 82 19 12 22 18 13 29 -10 12 -7 17 14 26 40 18 36 26 -54 99 -38
31 -128 135 -113 129 6 -2 70 -60 142 -127z m401 38 c0 -5 -4 -10 -9 -10 -6 0
-13 5 -16 10 -3 6 1 10 9 10 9 0 16 -4 16 -10z m-2614 -76 c-4 -9 -9 -15 -11
-12 -3 3 -3 13 1 22 4 9 9 15 11 12 3 -3 3 -13 -1 -22z m-91 -11 l18 -28 -21
19 c-12 11 -22 23 -22 28 0 14 7 9 25 -19z m575 -84 c0 -5 -7 -6 -15 -3 -9 4
-15 0 -15 -9 0 -9 -4 -18 -9 -21 -8 -5 -6 17 5 53 3 11 7 11 19 1 8 -7 15 -16
15 -21z m2043 3 c9 -10 32 -59 52 -109 34 -91 45 -153 25 -153 -5 0 -10 -10
-10 -22 0 -31 -37 -89 -61 -95 -21 -6 -25 -18 -9 -28 6 -3 10 -19 10 -36 0
-22 5 -29 20 -29 11 0 20 -4 20 -10 0 -5 -11 -10 -24 -10 -32 0 -65 40 -116
143 -38 74 -41 87 -37 137 8 89 70 230 100 230 8 0 21 -8 30 -18z m-858 -2 c3
-5 1 -10 -4 -10 -6 0 -11 5 -11 10 0 6 2 10 4 10 3 0 8 -4 11 -10z m-1665 -20
c13 -24 -2 -27 -47 -9 -26 10 -27 12 -8 19 32 14 44 11 55 -10z m2315 9 c11
-16 2 -17 -25 -2 -24 12 -24 13 -3 13 12 0 25 -5 28 -11z m-12 -42 c4 3 7 1 7
-5 0 -17 -16 -15 -31 6 -12 15 -12 16 2 5 9 -7 19 -10 22 -6z m-685 -15 c2 -8
-3 -10 -14 -5 -10 3 -15 2 -12 -3 9 -14 -20 -76 -34 -72 -6 2 -16 12 -22 21
-9 13 -4 22 24 46 36 31 51 34 58 13z m712 -17 c-7 -8 -16 -15 -21 -15 -5 0
-1 9 8 20 9 11 19 17 21 15 3 -3 -1 -11 -8 -20z m-802 -89 c2 -10 -1 -23 -6
-28 -12 -12 -36 27 -27 43 10 15 29 5 33 -15z m98 -65 c-4 -6 -23 -11 -42 -11
l-36 0 24 29 c22 28 24 28 42 11 10 -10 15 -23 12 -29z m-751 -16 c-316 -29
-673 -51 -664 -41 9 9 608 53 734 53 48 0 27 -4 -70 -12z m-955 -34 c0 -4 -21
-11 -46 -15 -73 -10 -94 -8 -94 9 0 12 14 15 70 15 39 0 70 -4 70 -9z m1501
-1 c10 -6 19 -15 19 -21 0 -6 -7 -6 -19 1 -11 5 -31 10 -46 10 -15 0 -24 4
-20 10 8 13 41 13 66 0z m1364 -32 c-8 -38 -20 -54 -29 -40 -5 9 23 72 32 72
2 0 1 -15 -3 -32z m-805 -17 c26 -27 57 -45 101 -59 60 -20 214 -57 287 -69
42 -7 51 -21 10 -15 -25 4 -36 -1 -52 -21 l-21 -26 -80 19 c-44 10 -145 33
-225 50 -178 39 -241 57 -265 74 -29 21 -10 34 40 28 28 -3 45 -1 45 6 0 6 -6
12 -12 15 -22 7 -2 18 49 27 79 13 84 12 123 -29z m-2046 -15 c7 -37 -15 -106
-33 -106 -16 0 -13 16 4 30 18 15 19 43 5 71 -11 19 -6 39 9 39 5 0 12 -16 15
-34z m-74 5 c-14 -27 -13 -53 6 -89 14 -28 20 -32 57 -32 36 0 39 -2 27 -15
-8 -8 -35 -15 -60 -17 l-45 -3 -6 50 c-4 28 -10 67 -14 88 -7 35 -6 37 19 37
23 0 25 -2 16 -19z m1145 -22 c-3 -9 -1 -20 5 -24 12 -7 14 -55 2 -55 -5 0
-14 -10 -20 -22 -9 -19 -11 -7 -11 61 -1 74 1 82 14 71 9 -7 13 -21 10 -31z
m1581 -56 c-11 -11 -17 4 -9 23 7 18 8 18 11 1 2 -10 1 -21 -2 -24z m183 -16
c-5 -17 -9 -33 -9 -34 0 -2 -4 -3 -10 -3 -13 0 -13 36 1 61 16 30 29 13 18
-24z m-1339 4 c0 -13 -26 -32 -33 -24 -14 13 -6 33 13 33 11 0 20 -4 20 -9z
m-1242 -17 c19 -6 14 -26 -5 -21 -10 3 -31 8 -46 11 -15 4 -25 11 -22 16 5 9
33 7 73 -6z m3477 -20 l20 -15 -20 -15 c-11 -8 -27 -20 -36 -28 -21 -18 -97
-27 -102 -12 -3 8 -8 8 -18 -1 -20 -19 -31 -15 -19 6 6 12 6 22 1 26 -5 3 -12
-3 -15 -12 -3 -11 -4 -8 -3 7 3 32 37 41 37 10 0 -12 5 -18 10 -15 6 3 10 18
10 32 0 24 2 25 38 20 20 -4 44 -2 52 3 19 12 21 12 45 -6z m-3565 -2 c0 -4
-9 -8 -20 -9 -11 -1 -20 2 -20 8 0 5 9 9 20 9 11 0 20 -4 20 -8z m8300 -13 c6
-11 9 -28 7 -37 -3 -15 -5 -14 -11 3 -4 11 -12 28 -17 38 -6 11 -6 17 1 17 5
0 14 -9 20 -21z m-27 -144 c62 -180 146 -457 157 -515 15 -77 31 -135 41 -144
5 -6 9 -16 9 -24 0 -19 31 -85 44 -94 7 -5 5 -8 -5 -8 -9 0 -22 -7 -29 -15 -7
-8 -25 -15 -40 -15 -25 0 -28 4 -33 48 -3 26 -40 157 -82 290 -42 134 -75 246
-73 248 3 2 33 -83 68 -189 34 -105 73 -216 86 -245 13 -29 23 -56 22 -60 -2
-13 21 -60 33 -68 9 -5 10 -2 5 12 -4 10 -31 96 -61 189 -29 94 -60 190 -68
215 -74 225 -157 498 -157 517 0 3 8 3 18 1 12 -2 30 -41 65 -143z m-5973 120
c7 -9 10 -18 6 -22 -3 -3 -6 -1 -6 5 0 7 -9 12 -21 12 -11 0 -17 5 -14 10 9
14 21 12 35 -5z m-566 -34 c51 3 67 -6 175 -98 105 -91 126 -114 109 -124 -39
-25 -72 -9 -203 95 -71 57 -139 114 -150 126 l-20 23 23 -12 c12 -7 42 -11 66
-10z m7581 -43 c283 -98 563 -283 749 -496 79 -90 88 -119 52 -167 -33 -42
-195 -165 -219 -165 -10 0 -60 42 -113 92 -111 108 -177 156 -336 244 -64 35
-144 80 -177 99 l-61 36 0 102 c-1 97 -12 215 -26 271 -6 25 -5 25 33 15 21
-6 65 -20 98 -31z m-5765 12 c0 -5 -4 -10 -10 -10 -5 0 -7 -6 -4 -13 3 -9 -8
-17 -30 -24 -28 -9 -34 -8 -29 3 3 8 -1 14 -7 14 -9 0 -7 7 5 20 19 21 75 28
75 10z m-3550 -22 c0 -6 -6 -5 -15 2 -8 7 -15 14 -15 16 0 2 7 1 15 -2 8 -4
15 -11 15 -16z m1013 -61 c14 -42 -3 -54 -53 -37 -60 20 -69 36 -28 54 47 21
70 16 81 -17z m7030 -47 c32 -92 67 -214 67 -236 0 -15 -15 -29 -52 -49 -69
-37 -220 -140 -243 -165 -10 -11 -22 -20 -26 -20 -7 0 -49 62 -49 72 0 3 13
22 29 42 16 20 33 51 36 69 4 18 15 58 26 90 11 33 19 84 19 122 l0 65 68 35
c89 46 101 43 125 -25z m-7863 -4 c36 -53 36 -56 10 -56 -15 0 -20 7 -20 25 0
14 -9 34 -20 45 -22 22 -25 30 -10 30 5 0 23 -20 40 -44z m2694 17 c-8 -33
-12 -39 -20 -31 -3 4 -1 15 5 26 9 17 8 21 -7 25 -13 4 -11 5 6 6 20 1 22 -2
16 -26z m281 7 c3 -5 2 -10 -4 -10 -5 0 -13 5 -16 10 -3 6 -2 10 4 10 5 0 13
-4 16 -10z m-392 -19 c-4 -3 -9 -13 -11 -23 -2 -12 3 -15 20 -12 13 2 17 1 10
-2 -10 -5 -10 -9 -1 -20 6 -8 7 -14 2 -14 -12 0 -53 38 -53 50 0 22 13 38 27
33 8 -3 11 -9 6 -12z m-2695 -87 c48 -12 75 -23 60 -23 -16 -1 -28 -5 -28 -11
0 -5 -7 -10 -16 -10 -11 0 -14 -6 -9 -20 4 -14 2 -20 -6 -18 -26 6 -20 -35 11
-73 l31 -39 -34 0 c-21 0 -41 8 -52 20 -17 18 -17 22 -3 36 11 11 13 26 8 62
-7 41 -15 54 -71 105 -38 35 -46 46 -21 26 30 -23 70 -40 130 -55z m2414 61
c0 -5 -5 -11 -11 -13 -6 -2 -11 4 -11 13 0 9 5 15 11 13 6 -2 11 -8 11 -13z
m6338 8 c0 -5 -4 -15 -10 -23 -11 -18 -25 -7 -17 15 6 15 27 21 27 8z m-1035
-142 c-6 -23 -8 -24 -16 -8 -6 9 -7 22 -4 27 3 6 1 10 -4 10 -16 0 -13 -43 4
-66 19 -26 18 -61 -4 -109 -19 -42 -71 -97 -58 -62 6 15 4 16 -13 7 -21 -11
-60 -14 -60 -4 0 4 13 22 30 40 33 38 60 118 60 179 0 33 6 47 30 70 17 16 31
36 32 44 1 9 3 -11 5 -44 2 -32 1 -71 -2 -84z m-4963 97 c-9 -9 -12 -7 -12 12
0 19 3 21 12 12 9 -9 9 -15 0 -24z m-2228 -8 c46 -22 121 -95 259 -255 l96
-109 -46 -88 c-52 -102 -91 -148 -125 -148 -34 0 -118 42 -203 101 -80 55
-238 212 -250 248 -11 36 3 69 49 119 24 26 56 67 71 92 15 25 33 48 39 52 20
14 69 8 110 -12z m2645 -13 c-4 -40 6 -57 33 -57 11 0 22 -8 25 -20 3 -11 10
-20 16 -20 17 0 -4 -17 -30 -25 -17 -5 -23 -2 -23 9 0 9 -6 16 -14 16 -8 0
-24 12 -35 26 -22 28 -28 64 -11 64 6 0 10 -5 10 -11 0 -5 5 -7 10 -4 16 10
12 25 -6 25 -14 0 -14 3 -4 15 20 24 32 17 29 -18z m-1322 -47 c9 -24 9 -30
-2 -30 -21 0 -59 36 -51 48 13 22 41 12 53 -18z m5744 -33 c-8 -8 -11 -5 -11
9 0 27 14 41 18 19 2 -9 -1 -22 -7 -28z m-16 -48 c10 -28 13 -31 17 -14 4 13
6 9 7 -14 1 -26 -2 -32 -15 -27 -8 3 -24 1 -34 -4 -15 -8 -23 -5 -40 17 l-21
26 28 29 c33 34 43 32 58 -13z m-5639 -16 c18 -21 28 -40 23 -41 -5 -2 -6 -8
-3 -14 4 -6 1 -13 -5 -17 -9 -6 -6 -21 9 -56 21 -50 70 -194 70 -207 0 -16
-57 -7 -110 18 -83 39 -82 35 -54 116 13 39 31 82 39 94 22 34 18 68 -11 103
-20 24 -31 30 -50 25 -13 -3 -24 -2 -24 3 0 40 75 25 116 -24z m-2558 12 c-3
-3 -9 2 -12 12 -6 14 -5 15 5 6 7 -7 10 -15 7 -18z m3907 -5 c-14 -16 -20 -17
-27 -8 -13 22 -9 28 19 28 26 0 26 0 8 -20z m497 8 c-9 -9 -15 -9 -24 0 -9 9
-7 12 12 12 19 0 21 -3 12 -12z m-1982 -28 c-12 -8 -12 -10 3 -16 9 -3 17 -10
17 -15 0 -12 -27 -11 -35 1 -9 15 2 40 17 40 9 0 9 -3 -2 -10z m1500 -15 c0
-8 -7 -15 -16 -15 -14 0 -14 3 -4 15 7 8 14 15 16 15 2 0 4 -7 4 -15z m-3910
-20 c0 -8 -4 -15 -10 -15 -5 0 -10 7 -10 15 0 8 5 15 10 15 6 0 10 -7 10 -15z
m2475 -25 c3 -5 -1 -10 -9 -10 -9 0 -16 5 -16 10 0 6 4 10 9 10 6 0 13 -4 16
-10z m1375 -59 c0 -10 -7 -24 -15 -31 -12 -10 -16 -9 -21 4 -3 9 -12 16 -19
16 -24 0 -28 20 -7 38 10 9 17 24 15 32 -3 8 7 2 21 -13 14 -15 26 -36 26 -46z
m-3820 40 c0 -6 -4 -13 -10 -16 -5 -3 -10 1 -10 9 0 9 5 16 10 16 6 0 10 -4
10 -9z m8022 -18 c22 -7 13 -23 -12 -23 -11 0 -24 10 -31 22 -10 19 -9 20 7
13 11 -4 27 -10 36 -12z m618 2 c0 -9 -7 -18 -15 -21 -23 -9 -45 3 -39 21 8
20 54 20 54 0z m-8614 -23 c-4 -11 3 -24 18 -36 14 -10 22 -24 19 -32 -3 -8 0
-14 7 -14 6 0 8 -5 5 -10 -3 -6 1 -13 9 -16 9 -3 14 -10 11 -14 -3 -5 1 -12 9
-17 9 -5 12 -13 7 -21 -6 -10 -18 3 -42 43 -19 32 -40 67 -48 80 -8 12 -11 29
-8 38 9 23 20 22 13 -1z m3005 -32 c19 -11 27 -50 9 -50 -14 0 -60 22 -60 30
0 6 21 30 28 30 2 0 12 -5 23 -10z m49 -10 c0 -5 -2 -10 -4 -10 -3 0 -8 5 -11
10 -3 6 -1 10 4 10 6 0 11 -4 11 -10z m4975 -29 c7 -12 -12 -24 -25 -16 -11 7
-4 25 10 25 5 0 11 -4 15 -9z m380 -36 c0 -22 -31 -33 -48 -16 -7 7 -6 15 3
26 17 21 45 15 45 -10z m-496 1 c9 -11 3 -15 -33 -20 -55 -9 -98 -40 -94 -70
3 -18 11 -22 58 -26 46 -4 55 -8 55 -25 0 -17 -6 -19 -41 -17 -27 2 -45 -2
-53 -12 -19 -23 -6 -60 26 -73 15 -7 36 -18 45 -25 14 -10 20 -9 37 6 14 13
28 16 47 12 23 -6 26 -11 20 -37 -10 -50 -43 -87 -87 -99 l-41 -11 6 -62 c15
-179 16 -177 -47 -208 -23 -12 -64 -42 -90 -66 -47 -44 -50 -45 -100 -40 -40
3 -56 10 -75 33 -22 25 -24 34 -19 89 14 144 165 498 264 615 40 48 98 65 122
36z m-3909 -52 c13 -33 13 -33 -10 -27 -11 3 -20 9 -20 14 0 5 -8 9 -17 9 -15
0 -16 -2 -3 -10 8 -5 10 -10 5 -10 -26 0 -48 54 -29 73 12 11 65 -24 74 -49z
m221 9 c-5 -10 -12 -26 -15 -35 -7 -22 -22 -23 -29 -4 -4 10 -1 13 9 9 9 -3
14 1 14 12 0 12 -5 15 -16 11 -14 -5 -15 -4 -4 9 7 8 21 15 31 15 15 0 17 -4
10 -17z m3240 -106 c-91 -177 -152 -349 -191 -533 -10 -49 -19 -78 -19 -64 -1
39 44 225 77 320 31 89 115 274 158 347 46 78 34 44 -25 -70z m-7255 -24 c3
-13 10 -23 16 -23 16 0 123 -92 121 -104 -2 -7 12 -26 30 -43 37 -36 180 -114
205 -112 15 1 15 2 0 6 -10 2 -18 9 -18 14 0 5 -33 25 -72 45 -78 39 -132 74
-125 80 2 2 36 -14 74 -36 92 -54 197 -89 305 -103 79 -10 98 -9 180 10 51 11
94 20 96 18 2 -1 -19 -11 -45 -20 -33 -12 -94 -20 -193 -24 -142 -6 -144 -7
-100 -20 58 -17 247 -9 309 13 59 22 76 19 24 -4 -54 -24 -140 -40 -217 -40
-111 0 -185 19 -302 76 -119 58 -209 131 -339 275 -50 56 -61 74 -57 95 4 24
6 23 53 -28 27 -29 51 -63 55 -75z m4073 55 c-27 -55 -48 -78 -68 -77 -11 0
-9 3 6 9 12 5 34 32 48 60 14 27 28 50 30 50 3 0 -4 -19 -16 -42z m3806 -40
c21 -10 36 -38 20 -38 -14 0 -65 32 -65 40 0 13 13 13 45 -2z m2154 -22 c19
-23 -4 -28 -24 -6 -15 17 -16 20 -3 20 9 0 21 -6 27 -14z m-699 -114 c0 -5 -7
-17 -15 -28 -15 -19 -20 -8 -9 20 6 17 24 22 24 8z m163 -7 c1 -5 -6 -11 -15
-13 -11 -2 -18 3 -18 13 0 17 30 18 33 0z m1102 -19 c82 -88 185 -489 185
-726 0 -151 -48 -417 -100 -556 -30 -81 -136 -295 -179 -362 -40 -62 -65 -82
-99 -82 -21 0 -125 50 -162 79 l-24 19 38 61 c63 103 143 271 174 366 42 129
56 246 49 422 -8 218 -50 384 -140 563 l-47 95 42 38 c24 21 69 56 102 77 76
52 116 54 161 6z m-2765 -31 c0 -5 -5 -3 -10 5 -5 8 -10 20 -10 25 0 6 5 3 10
-5 5 -8 10 -19 10 -25z m1888 -9 c39 -36 85 -112 77 -126 -8 -13 -110 -70
-127 -70 -26 0 -128 100 -128 125 0 48 89 122 129 107 9 -2 31 -19 49 -36z
m-8818 -70 c0 -2 -7 -7 -16 -10 -8 -3 -12 -2 -9 4 6 10 25 14 25 6z m7400 -16
c0 -5 -2 -10 -4 -10 -3 0 -8 5 -11 10 -3 6 -1 10 4 10 6 0 11 -4 11 -10z
m-7915 -62 c17 -6 34 -15 40 -19 5 -5 -13 -2 -40 7 -28 9 -54 21 -60 27 -7 7
-3 8 10 2 11 -4 34 -12 50 -17z m9853 -14 c-5 -26 -38 -31 -38 -7 0 24 21 46
33 34 5 -5 7 -17 5 -27z m-1768 8 l22 -18 -27 -32 c-32 -39 -47 -40 -65 -7
-12 23 -11 28 10 50 28 30 31 30 60 7z m1080 -96 c0 -16 -61 -37 -115 -40 -43
-2 -45 35 -4 99 l31 49 44 -46 c24 -26 44 -54 44 -62z m-1293 14 c-2 -19 -15
-62 -28 -95 l-24 -60 -45 0 c-53 0 -55 11 -10 83 15 26 34 67 40 92 17 63 19
64 47 38 20 -18 24 -30 20 -58z m126 -36 c9 -9 -20 -75 -45 -101 -43 -46 -62
-20 -32 40 29 57 58 80 77 61z m61 -98 c-6 -16 -24 -23 -24 -8 0 10 22 33 27
28 2 -2 1 -11 -3 -20z m1841 -41 c0 -10 -6 -20 -12 -22 -8 -3 -13 5 -13 22 0
17 5 25 13 23 6 -3 12 -13 12 -23z m-3252 -126 c-4 -63 -9 -103 -11 -89 -5 30
8 213 14 207 3 -2 1 -55 -3 -118z m3367 46 c18 -21 5 -47 -22 -43 -26 3 -37
36 -16 49 18 12 24 11 38 -6z m-360 -20 c0 -18 -5 -25 -19 -25 -24 0 -33 13
-25 34 10 27 44 20 44 -9z m75 -105 c0 -22 -29 -18 -33 3 -3 14 1 18 15 15 10
-2 18 -10 18 -18z m-2635 -57 c0 -71 33 -147 80 -187 27 -22 41 -27 77 -25 53
4 56 0 73 -96 57 -315 240 -609 524 -840 l93 -75 -8 -48 c-13 -67 -37 -144
-52 -163 -28 -36 -54 -41 -101 -20 -118 52 -335 225 -456 363 -243 278 -405
656 -427 995 -9 124 16 151 135 152 l62 1 0 -57z m2334 40 c14 -46 3 -261 -14
-294 -11 -19 -17 -21 -68 -15 -31 4 -61 11 -66 16 -7 7 -2 26 12 56 18 37 26
44 42 39 25 -8 26 11 3 37 -19 21 -44 23 -61 6 -15 -15 -24 -6 -16 16 4 10 17
16 35 16 26 0 29 4 35 41 12 71 83 130 98 82z m486 -13 c0 -10 -4 -22 -10 -25
-6 -4 -10 7 -10 25 0 18 4 29 10 25 6 -3 10 -15 10 -25z m-375 -3 c12 -19 13
-33 4 -86 -6 -34 -15 -59 -19 -54 -10 11 -22 148 -13 156 9 10 11 9 28 -16z
m-281 -3 c9 -24 7 -54 -4 -54 -5 0 -10 6 -10 13 0 6 -3 22 -6 35 -7 25 11 31
20 6z m-2106 -36 c7 -7 12 -16 12 -20 0 -13 -37 -9 -49 5 -20 24 14 38 37 15z
m2021 -39 c13 -38 14 -79 2 -79 -4 0 -6 -10 -4 -23 2 -12 -1 -35 -6 -51 l-11
-28 -31 38 c-16 21 -28 43 -25 49 2 7 7 38 11 71 4 32 9 62 12 67 8 14 41 -13
52 -44z m871 -24 c17 -20 4 -35 -31 -35 -21 0 -29 5 -29 18 0 10 3 22 7 25 11
12 40 8 53 -8z m-2221 -48 c6 -8 8 -17 4 -20 -17 -18 -110 4 -98 23 9 15 81
12 94 -3z m1871 -17 c0 -5 -9 -10 -21 -10 -11 0 -17 5 -14 10 3 6 13 10 21 10
8 0 14 -4 14 -10z m255 -65 c0 -22 -31 -33 -47 -17 -17 17 -1 44 24 40 15 -2
23 -10 23 -23z m-689 -71 c19 -13 38 -15 89 -10 36 4 65 4 65 1 0 -8 -28 -75
-32 -75 -2 0 -25 11 -52 25 -27 14 -62 25 -77 25 -31 0 -44 13 -35 35 7 19 11
19 42 -1z m-1201 -34 c-15 -16 -21 -18 -33 -8 -12 11 -10 14 14 24 36 15 42
10 19 -16z m1781 -6 c-4 -9 -9 -15 -11 -12 -3 3 -3 13 1 22 4 9 9 15 11 12 3
-3 3 -13 -1 -22z m884 6 c0 -5 -4 -10 -10 -10 -5 0 -10 5 -10 10 0 6 5 10 10
10 6 0 10 -4 10 -10z m-2812 -57 c2 -24 -4 -35 -32 -56 -19 -15 -46 -32 -61
-39 -26 -12 -30 -10 -56 22 -27 32 -38 69 -21 71 4 0 39 8 77 19 39 10 75 17
80 16 6 -1 11 -16 13 -33z m284 0 c22 -20 23 -46 2 -67 -21 -21 -36 -20 -62 4
-21 20 -21 23 -7 50 17 34 40 38 67 13z m680 -45 c-7 -7 -12 -8 -12 -2 0 14
12 26 19 19 2 -3 -1 -11 -7 -17z m655 -4 c8 -21 -19 -46 -40 -38 -22 8 -22 30
1 43 24 14 32 13 39 -5z m-277 -20 c0 -8 -4 -14 -9 -14 -11 0 -22 26 -14 34 9
9 23 -3 23 -20z m-842 4 c-2 -6 -10 -14 -16 -16 -7 -2 -10 2 -6 12 7 18 28 22
22 4z m-518 -8 c0 -5 -5 -10 -11 -10 -5 0 -7 5 -4 10 3 6 8 10 11 10 2 0 4 -4
4 -10z m2068 -17 c3 -22 -28 -40 -48 -28 -12 7 -13 38 -3 49 15 14 48 1 51
-21z m-2317 -13 c23 -13 25 -36 3 -44 -22 -9 -34 1 -34 30 0 27 3 28 31 14z
m1185 -6 c48 -23 50 -32 12 -48 -77 -31 -78 -31 -78 12 0 57 10 63 66 36z
m-136 -34 c0 -40 0 -40 -39 -40 -42 0 -65 18 -59 47 3 16 29 26 86 32 8 1 12
-13 12 -39z m1088 -2 c2 -20 -2 -28 -18 -33 -30 -9 -35 -1 -20 35 15 36 34 35
38 -2z m-484 -18 c-15 -22 -29 -40 -31 -40 -5 0 3 15 29 53 30 43 31 32 2 -13z
m-213 9 c4 -8 15 -31 25 -51 17 -35 22 -38 61 -38 53 0 54 -10 3 -32 -29 -12
-41 -13 -48 -5 -19 26 -72 125 -72 137 0 15 21 8 31 -11z m-1228 -9 c-3 -12
-8 -19 -11 -16 -5 6 5 36 12 36 2 0 2 -9 -1 -20z m917 -50 c0 -5 -4 -10 -10
-10 -5 0 -10 5 -10 10 0 6 5 10 10 10 6 0 10 -4 10 -10z m815 -15 c0 -22 -22
-30 -44 -16 -12 8 -13 12 -1 26 17 21 45 15 45 -10z m-535 -37 l73 -52 -42
-20 c-41 -20 -41 -20 -55 -1 -8 11 -28 37 -45 59 -33 41 -40 66 -18 66 7 0 46
-23 87 -52z m-96 -23 l45 -46 -26 -30 c-26 -29 -102 -59 -149 -59 -18 0 -24 9
-34 49 -15 62 -7 87 33 112 51 31 80 25 131 -26z m854 4 c2 -20 -2 -28 -19
-32 -28 -7 -39 -1 -39 22 0 44 53 53 58 10z m-1382 -42 c-6 -34 -28 -53 -47
-42 -4 3 1 26 13 50 25 51 44 46 34 -8z m-666 7 c0 -33 -33 -30 -38 4 -3 17 2
22 17 22 16 0 21 -6 21 -26z m766 1 c16 -24 24 -89 12 -101 -4 -3 -15 -3 -26
0 -32 10 -42 126 -11 126 5 0 16 -11 25 -25z m1999 -7 c-13 -41 -48 -119 -52
-115 -5 5 47 137 54 137 2 0 1 -10 -2 -22z m105 -5 c-16 -57 -64 -167 -67
-156 -3 9 48 151 63 175 10 16 12 7 4 -19z m33 -8 c-3 -9 -8 -14 -10 -11 -3 3
-2 9 2 15 9 16 15 13 8 -4z m-2477 -81 c-9 -26 -16 -56 -16 -67 0 -25 -31 -77
-47 -77 -22 0 -25 20 -8 73 24 74 65 141 77 129 7 -7 5 -26 -6 -58z m502 48
c2 -7 -3 -12 -12 -12 -9 0 -16 7 -16 16 0 17 22 14 28 -4z m432 -50 c0 -5 -7
-17 -15 -28 -14 -18 -14 -17 -4 9 12 27 19 34 19 19z m705 -22 c0 -18 -6 -26
-23 -28 -24 -4 -38 18 -28 44 3 9 15 14 28 12 17 -2 23 -10 23 -28z m-1765 0
c-6 -11 -15 -20 -20 -20 -6 0 -10 9 -10 20 0 13 7 20 20 20 18 0 19 -3 10 -20z
m306 -11 c19 -21 19 -21 -6 -18 -14 2 -26 12 -28 22 -5 23 11 22 34 -4z m870
-35 c-4 -9 -9 -15 -11 -12 -3 3 -3 13 1 22 4 9 9 15 11 12 3 -3 3 -13 -1 -22z
m-348 -57 c2 -9 -4 -20 -13 -23 -20 -8 -50 19 -40 36 10 17 49 8 53 -13z
m-213 -32 c0 -22 -31 -33 -48 -16 -7 7 -6 15 3 26 17 21 45 15 45 -10z m340
-10 c0 -13 -8 -21 -22 -23 -17 -3 -23 2 -23 16 0 10 3 22 7 26 13 13 38 1 38
-19z m-1237 6 c23 -14 10 -46 -18 -46 -16 0 -26 6 -28 19 -3 16 12 36 28 36 3
0 11 -4 18 -9z m565 -7 c9 -10 -4 -34 -19 -34 -8 0 -14 6 -14 13 0 22 19 35
33 21z m47 -15 c0 -22 -21 -48 -50 -62 -32 -16 -43 -5 -12 12 10 5 24 21 32
35 14 26 30 35 30 15z m964 -24 c10 -26 -5 -45 -35 -45 -33 0 -38 19 -13 44
20 20 40 20 48 1z m146 -25 c0 -25 -4 -30 -25 -30 -14 0 -28 7 -31 15 -8 20
13 45 37 45 14 0 19 -7 19 -30z m125 -10 c3 -5 1 -10 -4 -10 -6 0 -11 5 -11
10 0 6 2 10 4 10 3 0 8 -4 11 -10z m-820 -40 c0 -18 -33 -26 -47 -12 -6 6 -7
15 -3 22 10 16 50 8 50 -10z m941 -40 c58 -33 94 -72 94 -103 0 -53 -209 -210
-394 -298 -373 -175 -759 -223 -1146 -141 -122 26 -152 35 -182 56 -24 16 -34
30 -36 54 -4 35 33 191 48 206 6 6 61 -6 142 -32 73 -22 160 -46 193 -53 82
-17 420 -17 515 0 206 36 475 160 640 295 30 25 60 45 65 46 6 0 33 -13 61
-30z m-593 6 c7 -19 -18 -40 -38 -32 -8 3 -15 15 -15 26 0 14 7 20 24 20 13 0
26 -6 29 -14z m-1183 -15 c0 -21 -13 -41 -26 -41 -8 0 -14 10 -14 25 0 18 5
25 20 25 11 0 20 -4 20 -9z m505 -61 c3 -6 -4 -10 -17 -10 -18 0 -20 2 -8 10
19 12 18 12 25 0z m854 -4 c9 -11 8 -18 -4 -30 -21 -20 -44 -21 -51 -1 -7 17
12 45 31 45 7 0 18 -6 24 -14z m-254 -45 c0 -8 -7 -19 -17 -24 -20 -13 -50 7
-41 29 7 19 58 14 58 -5z m-240 -16 c0 -31 -49 -28 -53 3 -3 20 0 23 25 20 20
-2 28 -8 28 -23z m-495 -20 c16 -19 4 -35 -26 -35 -19 0 -24 5 -24 25 0 29 29
35 50 10z m260 -4 c0 -24 -25 -34 -51 -21 -34 19 -22 40 23 40 21 0 28 -5 28
-19z m375 -76 c0 -31 -49 -28 -53 3 -3 20 0 23 25 20 20 -2 28 -8 28 -23z
m-257 -23 c-5 -24 -52 -23 -56 2 -2 10 2 22 9 27 18 11 51 -9 47 -29z"/>
<path d="M8084 7498 c3 -13 6 -26 6 -30 0 -13 20 -9 20 4 0 6 7 20 17 30 9 11
11 18 5 18 -7 0 -12 -6 -12 -12 0 -8 -3 -9 -8 -3 -4 6 -13 11 -21 13 -10 2
-12 -4 -7 -20z"/>
<path d="M7830 7140 c0 -5 5 -10 10 -10 6 0 10 5 10 10 0 6 -4 10 -10 10 -5 0
-10 -4 -10 -10z"/>
<path d="M4076 6386 c3 -9 11 -16 16 -16 13 0 5 23 -10 28 -7 2 -10 -2 -6 -12z"/>
<path d="M2601 6644 c-35 -29 -40 -63 -13 -87 28 -25 67 -21 91 9 27 34 26 50
-4 79 -30 31 -36 31 -74 -1z m55 -30 c12 -46 -28 -62 -48 -19 -8 18 -8 28 1
39 16 19 40 10 47 -20z"/>
<path d="M2620 6600 c0 -13 5 -20 13 -17 6 2 12 10 12 17 0 7 -6 15 -12 18 -8
2 -13 -5 -13 -18z"/>
<path d="M6012 5609 c2 -6 8 -10 13 -10 5 0 11 4 13 10 2 6 -4 11 -13 11 -9 0
-15 -5 -13 -11z"/>
<path d="M6045 5590 c-3 -5 -3 -15 1 -21 6 -11 23 6 24 24 0 10 -18 9 -25 -3z"/>
<path d="M5773 5453 c9 -2 23 -2 30 0 6 3 -1 5 -18 5 -16 0 -22 -2 -12 -5z"/>
<path d="M2650 5351 c0 -38 28 -91 53 -100 14 -5 58 -13 98 -17 68 -7 73 -6
60 10 -13 16 -162 109 -194 122 -13 4 -17 1 -17 -15z"/>
<path d="M2740 5192 c0 -5 26 -35 57 -67 54 -54 59 -57 95 -51 55 9 118 36
118 51 0 22 -26 35 -96 50 -110 22 -174 29 -174 17z"/>
<path d="M5625 5350 c-3 -5 -2 -10 4 -10 5 0 13 5 16 10 3 6 2 10 -4 10 -5 0
-13 -4 -16 -10z"/>
<path d="M5548 5343 c6 -2 18 -2 25 0 6 3 1 5 -13 5 -14 0 -19 -2 -12 -5z"/>
<path d="M5645 5320 c-3 -5 -2 -10 4 -10 5 0 13 5 16 10 3 6 2 10 -4 10 -5 0
-13 -4 -16 -10z"/>
<path d="M5767 5358 c-5 -15 10 -48 22 -48 15 0 22 32 10 46 -14 17 -26 18
-32 2z"/>
<path d="M3754 4685 c1 -39 7 -43 27 -19 9 11 10 20 3 32 -18 28 -31 23 -30
-13z"/>
<path d="M3722 4684 c4 -21 22 -23 26 -1 2 10 -3 17 -13 17 -10 0 -15 -6 -13
-16z"/>
<path d="M3701 4594 c-25 -21 -31 -33 -31 -66 0 -123 124 -178 159 -69 17 55
5 85 -46 106 -27 12 -34 18 -24 24 16 10 6 31 -14 31 -7 0 -27 -12 -44 -26z
m68 -66 c12 -20 13 -34 5 -55 -19 -54 -74 -31 -74 31 0 59 42 73 69 24z"/>
<path d="M3720 4525 c-14 -17 -5 -51 15 -58 19 -8 38 18 30 42 -8 25 -31 33
-45 16z"/>
<path d="M3730 4360 c0 -5 7 -10 16 -10 8 0 12 5 9 10 -3 6 -10 10 -16 10 -5
0 -9 -4 -9 -10z"/>
<path d="M3757 4334 c-8 -8 3 -34 14 -34 5 0 9 9 9 20 0 19 -11 26 -23 14z"/>
<path d="M4634 3879 c-3 -6 -1 -16 5 -22 8 -8 11 -5 11 11 0 24 -5 28 -16 11z"/>
<path d="M1006 3465 c9 -14 20 -25 25 -25 5 0 2 11 -7 25 -9 14 -20 25 -25 25
-5 0 -2 -11 7 -25z"/>
<path d="M1046 3421 c-3 -5 1 -14 9 -21 12 -10 15 -10 15 3 0 19 -16 31 -24
18z"/>
<path d="M1105 3360 c-3 -5 -1 -10 4 -10 6 0 11 5 11 10 0 6 -2 10 -4 10 -3 0
-8 -4 -11 -10z"/>
<path d="M1150 3313 c1 -11 50 -46 50 -35 0 10 -33 42 -43 42 -4 0 -7 -3 -7
-7z"/>
<path d="M8665 9819 c-85 -15 -136 -31 -132 -42 2 -6 14 -17 27 -26 22 -15 24
-15 17 2 -5 15 -3 17 12 12 12 -3 21 0 25 10 6 18 45 19 99 4 35 -9 69 -2 40
8 -20 7 -15 23 10 33 19 8 18 9 -13 8 -19 0 -57 -4 -85 -9z"/>
<path d="M8965 9808 c46 -33 95 -59 95 -51 0 11 -59 48 -90 58 -24 7 -24 6 -5
-7z"/>
<path d="M9080 9741 c0 -10 30 -24 37 -17 3 2 -5 9 -16 16 -12 6 -21 7 -21 1z"/>
<path d="M9140 9706 c0 -2 7 -7 16 -10 8 -3 12 -2 9 4 -6 10 -25 14 -25 6z"/>
<path d="M9540 9418 c0 -3 68 -65 150 -137 83 -72 150 -127 150 -122 0 5 -60
60 -133 123 -152 130 -167 142 -167 136z"/>
<path d="M10330 9254 c-50 -45 -114 -141 -173 -259 l-45 -90 166 -179 167
-179 12 42 c8 29 33 65 77 112 36 38 69 81 72 95 10 38 -1 163 -19 211 -39
110 -161 283 -200 283 -9 0 -35 -16 -57 -36z"/>
<path d="M8130 8654 c0 -8 5 -12 10 -9 6 3 10 10 10 16 0 5 -4 9 -10 9 -5 0
-10 -7 -10 -16z"/>
<path d="M8111 8608 c1 -7 5 -24 9 -38 7 -22 8 -21 9 13 1 20 -3 37 -9 37 -5
0 -10 -6 -9 -12z"/>
<path d="M220 8412 c0 -12 19 -26 26 -19 2 2 -2 10 -11 17 -9 8 -15 8 -15 2z"/>
</g>
</svg>
